<?xml version="1.0" encoding="UTF-8"?>
<svg version="1.1" xmlns="http://www.w3.org/2000/svg" width="32" height="32" viewBox="400 400 630 630">
<path d="M0 0 C1.76966125 0.00213753 1.76966125 0.00213753 3.57507324 0.00431824 C4.22564194 0.00241989 4.87621063 0.00052155 5.54649353 -0.00143433 C7.7013242 -0.00514515 9.8558193 0.00556629 12.01062012 0.01676941 C13.50512655 0.01796118 14.99963374 0.01841438 16.49414062 0.01815796 C19.62809938 0.01972336 22.76194399 0.02801717 25.89587402 0.04142761 C29.9178093 0.05841755 33.93961904 0.06224197 37.961586 0.06148243 C41.04816898 0.06175406 44.13472439 0.06723414 47.22129822 0.07448387 C48.70450125 0.07767134 50.18770742 0.07963813 51.6709137 0.08037758 C53.74188585 0.08254032 55.81272361 0.09128308 57.88366699 0.10197449 C59.06344116 0.10578629 60.24321533 0.10959808 61.45874023 0.11352539 C64.22937012 0.24723816 64.22937012 0.24723816 66.22937012 1.24723816 C66.22937012 1.90723816 66.22937012 2.56723816 66.22937012 3.24723816 C66.76562012 3.47411316 67.30187012 3.70098816 67.85437012 3.93473816 C73.44600599 7.02485272 77.27946872 11.37604591 81.35046387 16.18473816 C83.91871327 19.00393917 86.77446832 21.39409248 89.72546387 23.80192566 C90.22175293 24.27887878 90.71804199 24.75583191 91.22937012 25.24723816 C91.22937012 25.90723816 91.22937012 26.56723816 91.22937012 27.24723816 C91.80687012 27.47411316 92.38437012 27.70098816 92.97937012 27.93473816 C95.82528393 29.59485455 97.22778933 31.63911773 99.22937012 34.24723816 C102.08555777 37.2621029 105.09680361 40.02685145 108.22937012 42.74723816 C112.34343339 46.32099294 116.1704289 49.93749508 119.60437012 54.18473816 C121.97669293 57.09419067 124.66080822 59.41888526 127.53796387 61.81755066 C131.12231386 64.84727837 134.22635509 68.21834614 137.22937012 71.80973816 C139.66132157 74.68951699 142.2349162 76.94381207 145.22937012 79.24723816 C146.90783343 80.90202409 148.572983 82.57035496 150.22937012 84.24723816 C151.91380589 85.9208784 153.5987199 87.59403742 155.28405762 89.26676941 C156.73025285 90.70558274 158.17596156 92.14488297 159.62145996 93.58439636 C160.60558211 94.56349583 161.59060073 95.54169511 162.57653809 96.51896667 C178.62329218 112.42900436 178.62329218 112.42900436 180.22937012 117.24723816 C180.22937012 118.23723816 180.22937012 119.22723816 180.22937012 120.24723816 C179.56937012 120.24723816 178.90937012 120.24723816 178.22937012 120.24723816 C177.87358887 121.09221863 177.87358887 121.09221863 177.51062012 121.95426941 C175.94287069 124.75996732 174.02022415 126.68479224 171.72937012 128.93473816 C170.93530762 129.72235535 170.14124512 130.50997253 169.32312012 131.32145691 C167.22937012 133.24723816 167.22937012 133.24723816 165.22937012 134.24723816 C164.20020962 135.38826392 163.20345794 136.55885101 162.22937012 137.74723816 C159.45159234 141.13612705 159.45159234 141.13612705 157.22937012 142.24723816 C155.8428028 143.87053648 154.45820839 145.49557138 153.08483887 147.13005066 C144.20966568 157.25709038 144.20966568 157.25709038 140.22937012 159.24723816 C139.3011331 160.23869875 138.41017704 161.26539093 137.54187012 162.30973816 C137.01722168 162.93106628 136.49257324 163.55239441 135.95202637 164.19255066 C134.75131946 165.62468634 133.55081413 167.05699104 132.35046387 168.48942566 C131.42427246 169.57610535 131.42427246 169.57610535 130.47937012 170.68473816 C129.90702637 171.3640741 129.33468262 172.04341003 128.74499512 172.74333191 C127.22937012 174.24723816 127.22937012 174.24723816 125.22937012 174.24723816 C124.98187012 174.82473816 124.73437012 175.40223816 124.47937012 175.99723816 C123.04637023 178.57663795 121.44512335 180.30845408 119.22937012 182.24723816 C118.56937012 182.24723816 117.90937012 182.24723816 117.22937012 182.24723816 C116.98187012 182.84536316 116.73437012 183.44348816 116.47937012 184.05973816 C115.04864487 186.56350735 113.66021191 187.72796204 111.22937012 189.24723816 C110.56937012 189.24723816 109.90937012 189.24723816 109.22937012 189.24723816 C109.22937012 188.58723816 109.22937012 187.92723816 109.22937012 187.24723816 C108.58999512 186.95848816 107.95062012 186.66973816 107.29187012 186.37223816 C105.22937012 185.24723816 105.22937012 185.24723816 104.22937012 183.24723816 C103.08834435 182.21807767 101.91775727 181.22132599 100.72937012 180.24723816 C97.34048123 177.46946038 97.34048123 177.46946038 96.22937012 175.24723816 C94.58397978 173.55345399 92.91796465 171.89696479 91.22937012 170.24723816 C89.44025026 168.46212081 87.65517288 166.6730155 85.86999512 164.88395691 C84.56175111 163.57882777 83.24133318 162.28590492 81.91687012 160.99723816 C79.57091039 158.56439104 78.2641834 156.9957237 78.10437012 153.55973816 C78.14562012 152.79661316 78.18687012 152.03348816 78.22937012 151.24723816 C78.88937012 151.24723816 79.54937012 151.24723816 80.22937012 151.24723816 C80.22937012 150.25723816 80.22937012 149.26723816 80.22937012 148.24723816 C80.88937012 148.24723816 81.54937012 148.24723816 82.22937012 148.24723816 C82.47300293 147.66587097 82.71663574 147.08450378 82.96765137 146.48551941 C84.45642359 143.84444671 86.10580274 142.39740342 88.41687012 140.43473816 C93.19150638 136.22801018 97.80796314 131.8874492 102.35437012 127.43473816 C103.03008057 126.78851501 103.70579102 126.14229187 104.40197754 125.47648621 C105.02822021 124.85813904 105.65446289 124.23979187 106.29968262 123.60270691 C106.86445312 123.05251892 107.42922363 122.50233093 108.0111084 121.93547058 C109.61948304 120.05361341 109.61948304 120.05361341 109.22937012 116.24723816 C107.19467834 113.69012863 107.19467834 113.69012863 104.45202637 111.14958191 C103.96608505 110.67404373 103.48014374 110.19850555 102.97947693 109.70855713 C101.42612635 108.19081621 99.86008683 106.68710179 98.29187012 105.18473816 C96.72900711 103.67715095 95.16916466 102.16673593 93.61497498 100.65020752 C92.20388085 99.27480848 90.78336581 97.90909477 89.36242676 96.54386902 C87.22937012 94.24723816 87.22937012 94.24723816 86.22937012 91.24723816 C84.37965315 90.19702713 84.37965315 90.19702713 82.22937012 89.24723816 C79.97937012 87.80973816 79.97937012 87.80973816 78.22937012 86.24723816 C78.22937012 85.25723816 78.22937012 84.26723816 78.22937012 83.24723816 C77.65468994 82.98974792 77.08000977 82.73225769 76.48791504 82.46696472 C65.07309031 76.30239177 55.47399944 63.60362637 46.41687012 54.49723816 C44.81879799 52.89413912 43.22049241 51.29127275 41.62194824 49.68864441 C38.69692128 46.75550695 35.77321412 43.82106861 32.85119629 40.88493347 C32.22651459 40.25756287 31.60183289 39.63019226 30.95822144 38.98381042 C29.87422508 37.894973 28.79067872 36.8056872 27.70779419 35.71574402 C25.29129643 33.28848714 22.8332063 30.97309812 20.22937012 28.74723816 C15.92035755 25.00307742 11.94996607 21.13317232 8.29187012 16.74723816 C6.3693587 14.45900478 4.45594973 12.52690758 2.10437012 10.68473816 C-1.01037669 8.04397457 -2.67754604 5.70887682 -4.77062988 2.24723816 C-2.77062988 0.24723816 -2.77062988 0.24723816 0 0 Z " fill="#FEFEFE" transform="translate(493.7706298828125,567.7527618408203)"/>
<path d="M0 0 C0.04628427 8.57077598 0.08184919 17.14149997 0.10362434 25.71236992 C0.11407386 29.69191773 0.12825422 33.67138021 0.15087891 37.65087891 C0.17256585 41.48933886 0.18455982 45.32771659 0.18975449 49.16623306 C0.19345773 50.63270487 0.200689 52.09917205 0.21146011 53.56560898 C0.22592019 55.61529106 0.22798029 57.66463082 0.22705078 59.71435547 C0.231492 60.88239716 0.23593323 62.05043884 0.24050903 63.25387573 C-0.07216417 66.82396811 -1.5300411 67.5300411 -4 70 C-5.5330545 71.80383858 -7.04886039 73.62125462 -8.5625 75.44140625 C-10 77 -10 77 -12 78 C-13.02916049 79.14102576 -14.02591217 80.31161285 -15 81.5 C-17.77777778 84.88888889 -17.77777778 84.88888889 -20 86 C-20.4021875 86.8971875 -20.4021875 86.8971875 -20.8125 87.8125 C-22.35968249 90.662573 -24.42575106 92.06931329 -27 94 C-29.35371788 96.35371788 -31.43532537 98.88347875 -33.5625 101.44140625 C-35 103 -35 103 -37 104 C-38.38656731 105.62329832 -39.77116173 107.24833322 -41.14453125 108.8828125 C-50.01970443 119.00985222 -50.01970443 119.00985222 -54 121 C-55.02916049 122.14102576 -56.02591217 123.31161285 -57 124.5 C-59.77777778 127.88888889 -59.77777778 127.88888889 -62 129 C-62.96808428 130.05609194 -63.90149431 131.14429389 -64.8125 132.25 C-67.40123427 135.33002691 -70.11518378 138.1911 -73 141 C-73.721875 141.721875 -74.44375 142.44375 -75.1875 143.1875 C-79 147 -79 147 -81 148 C-81.2784375 148.58305908 -81.556875 149.16611816 -81.84375 149.7668457 C-83.31789358 152.61397225 -85.22809062 154.47001777 -87.5 156.73046875 C-88.8303125 158.05788086 -88.8303125 158.05788086 -90.1875 159.41210938 C-91.115625 160.32798828 -92.04375 161.24386719 -93 162.1875 C-93.928125 163.11498047 -94.85625 164.04246094 -95.8125 164.99804688 C-102.71925626 171.85962813 -102.71925626 171.85962813 -105 173 C-106.18910742 174.45335352 -107.37737623 175.90741421 -108.55859375 177.3671875 C-110.7981794 179.9041707 -113.3486308 181.90356854 -116 184 C-120.00603828 182.66465391 -122.12492347 181.04932359 -125 178 C-126.03289691 177.1352491 -127.07508109 176.28150261 -128.125 175.4375 C-131 173 -131 173 -133 170 C-133.99 169.195625 -134.98 168.39125 -136 167.5625 C-138.61439666 165.32936952 -139.83826554 164.13668304 -141 161 C-141.66 161 -142.32 161 -143 161 C-144.28430862 159.52304509 -145.56580708 158.04193862 -146.78125 156.5078125 C-148.67519665 154.16466055 -150.69270318 152.44866481 -153.0625 150.5625 C-156 148 -156 148 -157 145 C-158.32777773 144.32233597 -159.66236344 143.65798986 -161 143 C-162.69616081 141.48936499 -164.34101328 139.920356 -165.94921875 138.31640625 C-166.87927734 137.38892578 -167.80933594 136.46144531 -168.76757812 135.50585938 C-169.48602905 134.78112427 -169.48602905 134.78112427 -170.21899414 134.04174805 C-171.68614429 132.56386562 -173.16368705 131.09698234 -174.64257812 129.63085938 C-175.56876953 128.70208984 -176.49496094 127.77332031 -177.44921875 126.81640625 C-178.29830811 125.96506104 -179.14739746 125.11371582 -180.0222168 124.23657227 C-182 122 -182 122 -183 119 C-185.00016466 117.79117904 -185.00016466 117.79117904 -187 117 C-186.87920159 109.99369221 -186.87920159 109.99369221 -184.41015625 107.203125 C-183.16641135 106.17557297 -181.89456058 105.18084567 -180.59375 104.2265625 C-178.85455832 103.07250028 -178.85455832 103.07250028 -178 101 C-176.515 100.505 -176.515 100.505 -175 100 C-174.67 99.01 -174.34 98.02 -174 97 C-172.37637856 95.2913722 -170.70239394 93.63015657 -169 92 C-167.71029297 90.67548828 -167.71029297 90.67548828 -166.39453125 89.32421875 C-165.11642578 88.01904297 -165.11642578 88.01904297 -163.8125 86.6875 C-162.52279297 85.36298828 -162.52279297 85.36298828 -161.20703125 84.01171875 C-159 82 -159 82 -157 82 C-156.67 81.34 -156.34 80.68 -156 80 C-151.99339643 80.55647272 -149.92334764 82.55838114 -147 85.25 C-145.7315625 86.40242187 -145.7315625 86.40242187 -144.4375 87.578125 C-142 90 -142 90 -139.875 92.671875 C-138.03761324 95.19165651 -138.03761324 95.19165651 -135 97 C-135 97.66 -135 98.32 -135 99 C-134.34 99 -133.68 99 -133 99 C-131.63823078 100.64351457 -130.31037934 102.31522656 -129 104 C-127.35353315 105.68662458 -125.68816933 107.35511706 -124 109 C-123.505 109.598125 -123.01 110.19625 -122.5 110.8125 C-120.98716855 112.22108933 -120.98716855 112.22108933 -118.5 112.3125 C-113.81727872 111.72715984 -111.82054054 108.64714864 -108.95703125 105.2109375 C-106.02475149 101.89822225 -102.86148717 98.81958272 -99.6953125 95.73266602 C-97.00367129 93.12949315 -97.00367129 93.12949315 -95 90 C-94.34 90 -93.68 90 -93 90 C-93 89.34 -93 88.68 -93 88 C-92.34 88 -91.68 88 -91 88 C-90.78158447 87.4548877 -90.56316895 86.90977539 -90.33813477 86.34814453 C-88.55826362 83.22484574 -86.14311186 80.9157703 -83.58984375 78.4296875 C-83.06234024 77.90738556 -82.53483673 77.38508362 -81.99134827 76.84695435 C-80.3114287 75.18479666 -78.62495728 73.52950195 -76.9375 71.875 C-75.24736984 70.21249027 -73.5587228 68.54854046 -71.87294006 66.88162231 C-70.82509029 65.8460278 -69.77457886 64.81311817 -68.72117615 63.78317261 C-66.01638571 61.15409686 -66.01638571 61.15409686 -64 58 C-63.34 58 -62.68 58 -62 58 C-61.67 57.01 -61.34 56.02 -61 55 C-60.34 55 -59.68 55 -59 55 C-58.77634766 54.45037598 -58.55269531 53.90075195 -58.32226562 53.33447266 C-56.60698133 50.30612177 -54.30920089 48.06157641 -51.84375 45.6484375 C-51.08934631 44.89827866 -51.08934631 44.89827866 -50.31970215 44.13296509 C-48.71778602 42.54220185 -47.10905183 40.95854189 -45.5 39.375 C-44.41750907 38.30254712 -43.33547273 37.22963519 -42.25390625 36.15625 C-40.27428356 34.19294373 -38.29219159 32.23221291 -36.30664062 30.27490234 C-33.77557351 27.77866151 -31.39370175 25.29552154 -29.125 22.5625 C-26.91455563 19.96229128 -24.72786123 18.04589592 -22 16 C-20.40815421 14.21020448 -18.87963955 12.38069727 -17.3671875 10.5234375 C-16 9 -16 9 -14 8 C-12.48586709 6.27388849 -11.06431903 4.48641051 -9.6328125 2.69140625 C-6.41435653 -0.64254456 -4.38307046 -1.27558443 0 0 Z M-30 24 C-29 26 -29 26 -29 26 Z " fill="#FEFEFE" transform="translate(806,489)"/>
<path d="M0 0 C2.62571005 -0.38613383 4.3843879 -0.38493778 6.66796875 1.04296875 C8.3125 2.375 8.3125 2.375 11 5 C11 5.66 11 6.32 11 7 C11.87398437 7.38671875 11.87398437 7.38671875 12.765625 7.78125 C15.1802903 9.09834017 16.81740177 10.55088384 18.75 12.5 C19.67039062 13.41265625 19.67039062 13.41265625 20.609375 14.34375 C22 16 22 16 22 18 C22.99 18.33 23.98 18.66 25 19 C25 19.66 25 20.32 25 21 C25.59401611 21.26876953 26.18803223 21.53753906 26.80004883 21.81445312 C29.00560129 23.00301852 30.4427882 24.19836867 32.19921875 25.96875 C32.76833984 26.53980469 33.33746094 27.11085938 33.92382812 27.69921875 C34.50583984 28.29347656 35.08785156 28.88773438 35.6875 29.5 C36.28111328 30.09425781 36.87472656 30.68851563 37.48632812 31.30078125 C41.85933 35.71865999 41.85933 35.71865999 43 38 C44.58392982 39.35176477 46.16969663 40.7014149 47.76269531 42.04248047 C51.9614132 45.71612954 55.91307769 49.6497905 59.87255859 53.57739258 C60.88052463 54.5737295 61.89296904 55.56555456 62.90966797 56.55297852 C64.39497736 57.99569412 65.86665329 59.45114466 67.3359375 60.91015625 C68.20782715 61.76746338 69.0797168 62.62477051 69.97802734 63.50805664 C72.12341485 66.15210038 72.80083439 67.63001928 73 71 C71.13689317 75.14023739 68.25658692 77.89488223 65 81 C64.47664062 81.54398438 63.95328125 82.08796875 63.4140625 82.6484375 C61.98131148 84.13710075 60.49379286 85.57259793 59 87 C58.34 87 57.68 87 57 87 C56.79375 87.53625 56.5875 88.0725 56.375 88.625 C54.46749574 91.91978009 51.95180616 94.59363628 49 97 C48.34 97 47.68 97 47 97 C47 97.66 47 98.32 47 99 C45.37626704 101.13649073 44.15572976 101.94262588 41.625 102.875 C38.15464588 103.04025496 36.7092465 102.12346347 34 100 C33.31731862 98.67479497 32.6492959 97.34187818 32 96 C31.34 95.67 30.68 95.34 30 95 C27.48382409 93.74191204 27.19514208 92.4699603 26 90 C25.01 89.67 24.02 89.34 23 89 C23 88.34 23 87.68 23 87 C21.68 86.34 20.36 85.68 19 85 C19 84.01 19 83.02 19 82 C18.43152344 81.76667969 17.86304688 81.53335938 17.27734375 81.29296875 C13.59385959 79.20165956 11.11857989 75.93434238 8.31640625 72.80078125 C6.15283769 70.7356784 6.15283769 70.7356784 3.4453125 71.015625 C0.70800183 72.11754559 -0.69205246 73.280623 -2.6875 75.4375 C-3.26886719 76.05496094 -3.85023438 76.67242188 -4.44921875 77.30859375 C-4.96097656 77.86675781 -5.47273437 78.42492187 -6 79 C-6.66 79.66 -7.32 80.32 -8 81 C-8.87534624 82.02784742 -9.74440683 83.06106018 -10.609375 84.09765625 C-14.29106394 88.4112268 -18.2434101 92.42724106 -22.25 96.4375 C-22.96929688 97.16904297 -23.68859375 97.90058594 -24.4296875 98.65429688 C-25.11804688 99.34458984 -25.80640625 100.03488281 -26.515625 100.74609375 C-27.13727539 101.37185303 -27.75892578 101.9976123 -28.39941406 102.64233398 C-30 104 -30 104 -32 104 C-32.061875 104.556875 -32.12375 105.11375 -32.1875 105.6875 C-33.70871195 110.01710324 -37.28468402 112.52312268 -41 115 C-42.03148176 116.13892778 -43.03027684 117.30804862 -44 118.5 C-45.96212134 120.91177415 -47.34821189 122.23214126 -50 124 C-51.05245092 125.15957061 -52.07224943 126.34937974 -53.0625 127.5625 C-55.78207381 130.89103691 -55.78207381 130.89103691 -58 132 C-59.54999248 133.72269359 -60.99957695 135.51354823 -62.46484375 137.30859375 C-64 139 -64 139 -67 141 C-68.59906119 142.79843523 -70.09215538 144.6619749 -71.59765625 146.5390625 C-72.29181641 147.26222656 -72.29181641 147.26222656 -73 148 C-73.66 148 -74.32 148 -75 148 C-75.061875 148.5775 -75.12375 149.155 -75.1875 149.75 C-76.32497695 152.89993618 -78.33920195 154.05307459 -81 156 C-83.34154796 158.34154796 -85.37732734 160.87338734 -87.46484375 163.44140625 C-89 165 -89 165 -92 166 C-92.70417463 167.31391031 -93.36627601 168.65069791 -94 170 C-96.27643254 172.75760003 -98.80422676 175.26596902 -101.3125 177.8125 C-101.97701172 178.51826172 -102.64152344 179.22402344 -103.32617188 179.95117188 C-103.97779297 180.61310547 -104.62941406 181.27503906 -105.30078125 181.95703125 C-105.89028564 182.56522705 -106.47979004 183.17342285 -107.0871582 183.80004883 C-109 185 -109 185 -114 184 C-114 174.1 -114 164.2 -114 154 C-113.67 154 -113.34 154 -113 154 C-112.28586721 145.97875848 -111.85474503 138.05358138 -112 130 C-112.33 130 -112.66 130 -113 130 C-113.05382106 127.37472811 -113.09358313 124.75055287 -113.125 122.125 C-113.14175781 121.37863281 -113.15851562 120.63226562 -113.17578125 119.86328125 C-113.1933959 117.90805539 -113.10320189 115.95257979 -113 114 C-112.01 113.01 -112.01 113.01 -111 112 C-110.12186701 110.94008788 -109.24726422 109.8772471 -108.375 108.8125 C-105.47278747 105.39938453 -102.28737774 102.52252415 -98.87890625 99.625 C-97.31763408 98.27471055 -95.83459796 96.83459796 -94.375 95.375 C-92 93 -92 93 -88.9375 90.5 C-86.03268894 88.19065623 -86.03268894 88.19065623 -84.19921875 85.734375 C-81.61491518 82.52120893 -78.79826068 79.65192301 -75.875 76.75 C-75.33746094 76.20859375 -74.79992187 75.6671875 -74.24609375 75.109375 C-70.25352444 71.12676222 -70.25352444 71.12676222 -68 70 C-66.61343269 68.37670168 -65.22883827 66.75166678 -63.85546875 65.1171875 C-54.98029557 54.99014778 -54.98029557 54.99014778 -51 53 C-49.97083951 51.85897424 -48.97408783 50.68838715 -48 49.5 C-45.22222222 46.11111111 -45.22222222 46.11111111 -43 45 C-41.45000752 43.27730641 -40.00042305 41.48645177 -38.53515625 39.69140625 C-37 38 -37 38 -34 36 C-32.94754908 34.84042939 -31.92775057 33.65062026 -30.9375 32.4375 C-28.21792619 29.10896309 -28.21792619 29.10896309 -26 28 C-24.60618307 26.36821433 -23.21474874 24.73432837 -21.8359375 23.08984375 C-19.12177275 20.00031579 -16.17346022 17.16317469 -13.2421875 14.28125 C-10.53288859 11.52475076 -8.05196039 8.6190627 -5.60546875 5.62890625 C-3.86916937 3.86725943 -2.25830883 2.97484481 0 2 C0 1.34 0 0.68 0 0 Z " fill="#FEFEFE" transform="translate(684,696)"/>
<path d="M0 0 C2.98966616 1.25218482 4.77069581 3.46589466 6.94921875 5.81640625 C9.30293663 8.17012413 11.8326975 10.25173162 14.390625 12.37890625 C15.94921875 13.81640625 15.94921875 13.81640625 16.94921875 15.81640625 C18.7074337 17.36346303 20.52795021 18.81698822 22.35546875 20.28125 C23.94921875 21.81640625 23.94921875 21.81640625 24.94921875 24.81640625 C25.56796875 25.12578125 26.18671875 25.43515625 26.82421875 25.75390625 C29.45385171 27.06872273 30.49435502 28.27039473 31.94921875 30.81640625 C32.41723633 33.03271484 32.41723633 33.03271484 31.94921875 35.81640625 C30.14093305 38.33089431 27.94181199 40.40421825 25.7109375 42.54296875 C25.07436722 43.17246429 24.43779694 43.80195984 23.78193665 44.45053101 C21.74496917 46.45953036 19.69133648 48.4504771 17.63671875 50.44140625 C16.26383474 51.78920514 14.89207592 53.13815119 13.52148438 54.48828125 C10.49495713 57.46568819 7.45784003 60.43179175 4.41093445 63.38833618 C3.92856827 63.8595993 3.44620209 64.33086243 2.94921875 64.81640625 C2.11382317 65.55653458 2.11382317 65.55653458 1.2615509 66.31161499 C-0.3794147 67.86046015 -0.3794147 67.86046015 -0.05078125 70.81640625 C1.53654674 72.78750336 1.53654674 72.78750336 3.66796875 74.7578125 C4.81845703 75.88026367 4.81845703 75.88026367 5.9921875 77.02539062 C7.20841797 78.19038086 7.20841797 78.19038086 8.44921875 79.37890625 C10.04735338 80.91733315 11.64134172 82.4600829 13.23046875 84.0078125 C13.94267578 84.69045166 14.65488281 85.37309082 15.38867188 86.07641602 C16.94921875 87.81640625 16.94921875 87.81640625 16.94921875 89.81640625 C17.53832031 90.08839844 18.12742187 90.36039063 18.734375 90.640625 C25.67234364 94.32374416 31.29220796 100.8608625 36.32421875 106.75390625 C39.06351913 109.92196669 41.91952604 112.66804458 45.17578125 115.296875 C47.56678331 117.34555298 49.73315862 119.57877113 51.94921875 121.81640625 C53.27743677 123.12362545 54.60697259 124.42950643 55.9375 125.734375 C57.37900613 127.15745092 58.82041023 128.58063019 60.26171875 130.00390625 C61.00228516 130.72771484 61.74285156 131.45152344 62.50585938 132.19726562 C63.20517578 132.89013672 63.90449219 133.58300781 64.625 134.296875 C65.26348877 134.92489014 65.90197754 135.55290527 66.55981445 136.19995117 C67.94921875 137.81640625 67.94921875 137.81640625 67.94921875 139.81640625 C68.49707031 140.03554688 69.04492188 140.2546875 69.609375 140.48046875 C72.69646467 142.24304749 74.95192878 144.64609624 77.38671875 147.19140625 C80.73323322 150.66324095 84.1631562 153.82262437 87.94921875 156.81640625 C89.30308811 158.46643453 90.63600017 160.13384495 91.94921875 161.81640625 C96.26247187 166.274964 100.85433577 170.40777962 105.484375 174.53125 C109.83885646 178.48531937 109.83885646 178.48531937 110.94921875 181.81640625 C111.60921875 181.81640625 112.26921875 181.81640625 112.94921875 181.81640625 C113.27921875 182.80640625 113.60921875 183.79640625 113.94921875 184.81640625 C112.09656282 186.66906218 109.04835608 186.02861527 106.56518555 186.08520508 C105.89846832 186.10152985 105.2317511 186.11785461 104.54483032 186.13467407 C102.32945219 186.18686364 100.11402283 186.23099566 97.8984375 186.2734375 C97.14310038 186.28854559 96.38776325 186.30365368 95.60953712 186.31921959 C91.61095711 186.39842801 87.61231491 186.47105341 83.61352539 186.53881836 C79.48030843 186.61026971 75.34798263 186.70525552 71.21538067 186.80559254 C68.040557 186.87822988 64.86560409 186.93287416 61.69034767 186.98267174 C60.16679069 187.00977095 58.64333987 187.04373996 57.12009239 187.08469582 C54.98703789 187.14042155 52.8550504 187.17056592 50.72143555 187.19458008 C49.50755661 187.21821121 48.29367767 187.24184235 47.04301453 187.26618958 C43.34467911 186.72851685 42.16555591 185.77018551 39.94921875 182.81640625 C39.94921875 182.15640625 39.94921875 181.49640625 39.94921875 180.81640625 C37.96921875 179.82640625 37.96921875 179.82640625 35.94921875 178.81640625 C35.94921875 178.15640625 35.94921875 177.49640625 35.94921875 176.81640625 C35.39105469 176.58566406 34.83289063 176.35492187 34.2578125 176.1171875 C31.33632674 174.47107116 29.34867209 172.40567493 27.01171875 170.00390625 C26.17769531 169.15183594 25.34367188 168.29976562 24.484375 167.421875 C23.64777344 166.56207031 22.81117188 165.70226562 21.94921875 164.81640625 C20.62664062 163.50929688 20.62664062 163.50929688 19.27734375 162.17578125 C16.94921875 159.81640625 16.94921875 159.81640625 14.63671875 156.87890625 C12.04070192 153.65884691 8.91527019 151.44555807 5.5234375 149.11328125 C5.00394531 148.6853125 4.48445312 148.25734375 3.94921875 147.81640625 C3.94921875 147.15640625 3.94921875 146.49640625 3.94921875 145.81640625 C2.95921875 145.48640625 1.96921875 145.15640625 0.94921875 144.81640625 C-3.05078125 140.35926339 -3.05078125 140.35926339 -3.05078125 137.81640625 C-3.62828125 137.75453125 -4.20578125 137.69265625 -4.80078125 137.62890625 C-7.97042473 136.48431277 -9.04498353 134.4908032 -11.05078125 131.81640625 C-14.78255392 127.87138942 -18.83811188 124.32741803 -22.90625 120.73828125 C-25.38311893 118.51857358 -27.73260186 116.20081934 -30.05078125 113.81640625 C-30.81390625 113.09453125 -31.57703125 112.37265625 -32.36328125 111.62890625 C-34.05078125 109.81640625 -34.05078125 109.81640625 -34.05078125 107.81640625 C-34.88609375 107.50703125 -34.88609375 107.50703125 -35.73828125 107.19140625 C-38.29119228 105.67345915 -39.73084166 103.85607056 -41.546875 101.5390625 C-43.91709214 98.8240865 -46.69599264 96.61405162 -49.4765625 94.33203125 C-50.25580078 93.58179688 -50.25580078 93.58179688 -51.05078125 92.81640625 C-51.05078125 92.15640625 -51.05078125 91.49640625 -51.05078125 90.81640625 C-51.60765625 90.61015625 -52.16453125 90.40390625 -52.73828125 90.19140625 C-55.29416787 88.67168988 -56.73513086 86.8496259 -58.5546875 84.53125 C-60.86282244 81.88563319 -63.56428094 79.74040077 -66.28125 77.52734375 C-68.77114264 75.11989789 -69.82467393 72.86215259 -70.55078125 69.50390625 C-69.51174976 63.91911197 -64.61868394 60.23500302 -60.4440918 56.69580078 C-55.48962014 52.3933996 -50.88203619 47.7730142 -46.2578125 43.12109375 C-45.34875656 42.21062286 -44.43970062 41.30015198 -43.50309753 40.36209106 C-41.10759823 37.96281166 -38.71511525 35.56054725 -36.32330322 33.15759277 C-33.8937928 30.71782439 -31.4614306 28.2809028 -29.02929688 25.84375 C-25.46696679 22.27350462 -21.90615617 18.70175181 -18.34692383 15.12841797 C-7.95632757 4.69757853 -7.95632757 4.69757853 -5.48828125 2.44140625 C-4.93011719 1.91804687 -4.37195313 1.3946875 -3.796875 0.85546875 C-2.05078125 -0.18359375 -2.05078125 -0.18359375 0 0 Z " fill="#FEFEFE" transform="translate(770.05078125,616.18359375)"/>
<path d="M0 0 C3.48317698 0.80381007 4.3679284 2.71683906 6.4375 5.5625 C8.09325749 6.90935659 9.76132259 8.2411428 11.4375 9.5625 C14.91256237 12.73172826 18.26498405 16.0220347 21.625 19.3125 C22.53958984 20.18132813 23.45417969 21.05015625 24.39648438 21.9453125 C29.49113179 26.9534825 32.60856017 30.36160859 33.4375 37.5625 C32.7775 37.5625 32.1175 37.5625 31.4375 37.5625 C31.1075 38.5525 30.7775 39.5425 30.4375 40.5625 C29.4475 40.5625 28.4575 40.5625 27.4375 40.5625 C27.29634766 41.43648437 27.29634766 41.43648437 27.15234375 42.328125 C26.27787621 45.06143336 25.04692413 46.32089814 23 48.3125 C22.38253906 48.92609375 21.76507812 49.5396875 21.12890625 50.171875 C19.4375 51.5625 19.4375 51.5625 17.4375 51.5625 C17.07277588 52.41726929 17.07277588 52.41726929 16.70068359 53.28930664 C15.2030607 55.98439106 13.43084976 57.77814007 11.2265625 59.93359375 C9.97746094 61.16625977 9.97746094 61.16625977 8.703125 62.42382812 C7.83171875 63.27396484 6.9603125 64.12410156 6.0625 65 C4.34403745 66.68383681 2.62781613 68.36996459 0.9140625 70.05859375 C0.15174316 70.80294678 -0.61057617 71.5472998 -1.39599609 72.31420898 C-3.6314508 74.56490583 -3.6314508 74.56490583 -5.68994141 77.22290039 C-7.5625 79.5625 -7.5625 79.5625 -10 81.5 C-12.97751379 83.89653549 -15.14828299 86.60508417 -17.5625 89.5625 C-19.20738294 91.25066933 -20.87587542 92.91603315 -22.5625 94.5625 C-23.15675781 95.17867187 -23.75101563 95.79484375 -24.36328125 96.4296875 C-24.98589844 97.07164062 -25.60851562 97.71359375 -26.25 98.375 C-26.83136719 98.97957031 -27.41273438 99.58414063 -28.01171875 100.20703125 C-29.5625 101.5625 -29.5625 101.5625 -31.5625 101.5625 C-31.94921875 102.43648437 -31.94921875 102.43648437 -32.34375 103.328125 C-33.66084017 105.7427903 -35.11338384 107.37990177 -37.0625 109.3125 C-37.6709375 109.92609375 -38.279375 110.5396875 -38.90625 111.171875 C-40.5625 112.5625 -40.5625 112.5625 -42.5625 112.5625 C-42.5625 113.2225 -42.5625 113.8825 -42.5625 114.5625 C-45.1875 115.375 -45.1875 115.375 -48.5625 115.5625 C-51.55712878 113.84144898 -53.99942746 111.68864509 -55.5625 108.5625 C-57.32071495 107.01544322 -59.14123146 105.56191803 -60.96875 104.09765625 C-62.5625 102.5625 -62.5625 102.5625 -63.5625 99.5625 C-64.2225 99.5625 -64.8825 99.5625 -65.5625 99.5625 C-66.84680862 98.08554509 -68.12830708 96.60443862 -69.34375 95.0703125 C-71.23769665 92.72716055 -73.25520318 91.01116481 -75.625 89.125 C-78.5625 86.5625 -78.5625 86.5625 -79.5625 83.5625 C-80.160625 83.27375 -80.75875 82.985 -81.375 82.6875 C-84.30118579 81.18260445 -85.59341464 79.18794715 -87.5625 76.5625 C-88.41996826 75.81661621 -89.27743652 75.07073242 -90.16088867 74.30224609 C-94.37302715 69.2219658 -93.17056444 62.20477887 -93.05078125 55.9765625 C-93.04144595 54.55025475 -93.03433322 53.12393088 -93.02934265 51.69760132 C-93.01032851 47.9587919 -92.96127859 44.22096672 -92.90582275 40.48254395 C-92.85450796 36.66167513 -92.83180271 32.84064595 -92.80664062 29.01953125 C-92.75315211 21.53340735 -92.66791 14.04809203 -92.5625 6.5625 C-91.5725 6.2325 -90.5825 5.9025 -89.5625 5.5625 C-88.35367904 3.56233534 -88.35367904 3.56233534 -87.5625 1.5625 C-80.6740801 7.32627991 -74.36239344 12.91822527 -69.5625 20.5625 C-67.20878212 22.91621788 -64.67902125 24.99782537 -62.12109375 27.125 C-60.5625 28.5625 -60.5625 28.5625 -59.5625 30.5625 C-58.82 31.305 -58.0775 32.0475 -57.3125 32.8125 C-55.33413412 34.79086588 -53.69629233 36.62780152 -52 38.8125 C-49.85522736 41.54361356 -49.85522736 41.54361356 -47.625 42.625 C-44.36718958 42.52627847 -42.28722203 41.28025954 -39.5625 39.5625 C-39.29308594 38.98628906 -39.02367187 38.41007813 -38.74609375 37.81640625 C-37.02395656 34.53695688 -34.39362446 32.22563521 -31.75 29.6875 C-27.74798005 25.81904561 -24.08632446 21.87343301 -20.5625 17.5625 C-18.91603315 15.87587542 -17.25066933 14.20738294 -15.5625 12.5625 C-14.840625 11.799375 -14.11875 11.03625 -13.375 10.25 C-11.5625 8.5625 -11.5625 8.5625 -9.5625 8.5625 C-9.335625 7.985 -9.10875 7.4075 -8.875 6.8125 C-6.73121117 3.13743343 -4.19063013 0.91989442 0 0 Z M-53.5625 38.5625 C-52.5625 40.5625 -52.5625 40.5625 -52.5625 40.5625 Z " fill="#ED5728" transform="translate(770.5625,777.4375)"/>
<path d="M0 0 C1.26108078 0.00007553 2.52216156 0.00015106 3.82145691 0.00022888 C5.19778482 0.0053355 6.57411234 0.0105515 7.95043945 0.01586914 C9.35862681 0.01773453 10.76681481 0.01915786 12.17500305 0.02015686 C15.878894 0.02397251 19.58274566 0.03379467 23.28662109 0.04486084 C27.06713326 0.05509542 30.84765179 0.05965887 34.62817383 0.06469727 C42.04420736 0.0754178 49.46020852 0.09248279 56.8762207 0.11352539 C57.3712207 1.59852539 57.3712207 1.59852539 57.8762207 3.11352539 C58.5362207 3.11352539 59.1962207 3.11352539 59.8762207 3.11352539 C58.52674989 7.13897562 56.82448137 9.5318871 53.8137207 12.50415039 C53.01708008 13.29563477 52.22043945 14.08711914 51.3996582 14.90258789 C50.15055664 16.12075195 50.15055664 16.12075195 48.8762207 17.36352539 C48.04348633 18.19110352 47.21075195 19.01868164 46.3527832 19.87133789 C40.18529462 25.95898843 40.18529462 25.95898843 37.8762207 27.11352539 C37.3812207 27.79415039 36.8862207 28.47477539 36.3762207 29.17602539 C35.8812207 29.81540039 35.3862207 30.45477539 34.8762207 31.11352539 C34.2162207 31.11352539 33.5562207 31.11352539 32.8762207 31.11352539 C32.5462207 31.77352539 32.2162207 32.43352539 31.8762207 33.11352539 C30.8862207 33.77352539 29.8962207 34.43352539 28.8762207 35.11352539 C28.5462207 36.10352539 28.2162207 37.09352539 27.8762207 38.11352539 C25.8762207 39.44685872 23.8762207 40.78019206 21.8762207 42.11352539 C20.73315431 45.54272457 20.72519508 46.72579058 21.8762207 50.11352539 C24.19841716 52.73929327 24.19841716 52.73929327 27.1887207 55.23852539 C28.27485889 56.19793366 29.36079002 57.15757637 30.4465332 58.11743164 C31.00888672 58.60743652 31.57124023 59.09744141 32.15063477 59.60229492 C34.98978546 62.08876108 37.77673246 64.63143932 40.5637207 67.17602539 C41.08039307 67.64089355 41.59706543 68.10576172 42.12939453 68.5847168 C45.76240343 71.88589085 45.76240343 71.88589085 46.8762207 74.11352539 C48.50133109 75.50164051 50.12692099 76.88919881 51.75512695 78.27368164 C54.1477897 80.34908524 56.5020162 82.44790016 58.8137207 84.61352539 C59.58586914 85.32508789 60.35801758 86.03665039 61.15356445 86.76977539 C63.32387031 89.72257247 63.21075309 91.53145554 62.8762207 95.11352539 C61.3912207 95.60852539 61.3912207 95.60852539 59.8762207 96.11352539 C59.19251621 97.43820285 58.52657885 98.77216172 57.8762207 100.11352539 C56.8862207 100.77352539 55.8962207 101.43352539 54.8762207 102.11352539 C53.90768935 103.19057566 52.97193041 104.29764363 52.0637207 105.42602539 C49.25858126 108.78105569 46.28012097 111.37560561 42.8762207 114.11352539 C41.52253474 115.42619057 40.18822474 116.75919864 38.8762207 118.11352539 C37.20955404 119.78019206 35.54288737 121.44685872 33.8762207 123.11352539 C33.4018457 123.73227539 32.9274707 124.35102539 32.4387207 124.98852539 C30.8762207 126.11352539 30.8762207 126.11352539 28.0012207 126.17602539 C24.54199223 124.99988771 23.24526611 123.55502882 21.0949707 120.66040039 C19.33633025 118.42827982 17.09373608 116.87616582 14.8762207 115.11352539 C13.54288737 113.44685872 12.20955404 111.78019206 10.8762207 110.11352539 C9.21351784 108.77525235 7.54705889 107.44162754 5.8762207 106.11352539 C4.8762207 104.78019206 3.8762207 103.44685872 2.8762207 102.11352539 C1.6696582 101.15446289 1.6696582 101.15446289 0.4387207 100.17602539 C-2.21125063 98.04312164 -4.00578978 95.76101229 -6.1237793 93.11352539 C-7.78648216 91.77525235 -9.45294111 90.44162754 -11.1237793 89.11352539 C-12.1237793 87.78019206 -13.1237793 86.44685872 -14.1237793 85.11352539 C-14.9487793 84.45352539 -15.7737793 83.79352539 -16.6237793 83.11352539 C-18.95322266 81.2499707 -20.42796349 79.53611939 -22.1237793 77.11352539 C-24.47749718 74.75980751 -27.00725805 72.67820002 -29.56518555 70.55102539 C-31.1237793 69.11352539 -31.1237793 69.11352539 -32.1237793 67.11352539 C-33.26480506 66.0843649 -34.43539215 65.08761322 -35.6237793 64.11352539 C-39.01266819 61.33574761 -39.01266819 61.33574761 -40.1237793 59.11352539 C-41.84647289 57.56353291 -43.63732753 56.11394844 -45.43237305 54.64868164 C-47.1237793 53.11352539 -47.1237793 53.11352539 -49.1237793 50.11352539 C-50.10473678 49.09483878 -51.10080008 48.09000556 -52.1237793 47.11352539 C-50.85084511 42.33310408 -49.19393537 39.70310594 -45.6237793 36.30102539 C-44.8297168 35.53145508 -44.0356543 34.76188477 -43.2175293 33.96899414 C-41.1237793 32.11352539 -41.1237793 32.11352539 -39.1237793 31.11352539 C-37.57672251 29.35531044 -36.12319733 27.53479393 -34.65893555 25.70727539 C-33.1237793 24.11352539 -33.1237793 24.11352539 -30.1237793 23.11352539 C-29.7937793 22.12352539 -29.4637793 21.13352539 -29.1237793 20.11352539 C-27.49442689 18.73484258 -25.82628323 17.40078446 -24.1237793 16.11352539 C-21.96034918 14.08083937 -21.96034918 14.08083937 -20.1237793 11.11352539 C-19.4637793 11.11352539 -18.8037793 11.11352539 -18.1237793 11.11352539 C-17.8350293 10.47415039 -17.5462793 9.83477539 -17.2487793 9.17602539 C-16.1237793 7.11352539 -16.1237793 7.11352539 -14.1237793 6.11352539 C-13.3194043 5.28852539 -12.5150293 4.46352539 -11.6862793 3.61352539 C-7.88853642 -0.09158961 -5.1030725 -0.01018577 0 0 Z " fill="#EF5728" transform="translate(529.123779296875,675.886474609375)"/>
<path d="M0 0 C0.78375 0.2475 1.5675 0.495 2.375 0.75 C2.87 1.74 2.87 1.74 3.375 2.75 C4.98931298 4.12937927 6.60552063 5.50658939 8.2300415 6.87393188 C12.48509383 10.59557406 16.43153494 14.64350262 20.4296875 18.63671875 C21.38128685 19.58509829 22.33295847 20.53340531 23.28469849 21.48164368 C25.26480952 23.45580791 27.24288493 25.43198604 29.21972656 27.40942383 C31.75334707 29.94314669 34.29382343 32.4698759 36.8360424 34.99496746 C38.7971009 36.94492531 40.75361571 38.89939303 42.70886612 40.85517311 C44.09794121 42.24249673 45.49155304 43.62527307 46.88522339 45.00798035 C47.72344635 45.84927994 48.56166931 46.69057953 49.42529297 47.55737305 C50.1658493 48.29650436 50.90640564 49.03563568 51.66940308 49.79716492 C53.375 51.75 53.375 51.75 54.375 54.75 C54.99375 55.059375 55.6125 55.36875 56.25 55.6875 C58.80474526 56.96487263 59.77361306 58.42070991 61.375 60.75 C63.02905599 62.40405599 64.67331983 63.80277513 66.5 65.25 C67.44875 66.075 68.3975 66.9 69.375 67.75 C69.375 68.41 69.375 69.07 69.375 69.75 C70.24125 70.12125 70.24125 70.12125 71.125 70.5 C74.47072456 72.35873587 76.77796916 73.917463 78.00805664 77.69311523 C78.63195491 81.16944458 79.0196962 83.64928948 77.1862793 86.77954102 C75.43275065 88.74934589 73.59754098 90.50004146 71.625 92.25 C70.97789062 92.86875 70.33078125 93.4875 69.6640625 94.125 C64.93303571 98.5639881 64.93303571 98.5639881 61.375 99.75 C60.68544731 101.07164266 60.02255297 102.40727986 59.375 103.75 C58.09316519 105.21342808 56.7556979 106.62945429 55.375 108 C54.323125 109.05960938 54.323125 109.05960938 53.25 110.140625 C51.375 111.75 51.375 111.75 49.375 111.75 C48.88 113.235 48.88 113.235 48.375 114.75 C46.89 115.245 46.89 115.245 45.375 115.75 C44.88 117.235 44.88 117.235 44.375 118.75 C43.715 118.75 43.055 118.75 42.375 118.75 C42.375 119.41 42.375 120.07 42.375 120.75 C41.715 120.75 41.055 120.75 40.375 120.75 C40.375 121.41 40.375 122.07 40.375 122.75 C36.07937739 124.36854553 32.44822641 125.02448805 27.86645508 125.11645508 C26.59526321 125.14600784 25.32407135 125.17556061 24.01435852 125.20600891 C22.64109304 125.22783914 21.26781673 125.24899733 19.89453125 125.26953125 C18.47539045 125.29588999 17.05625696 125.32264486 15.63713074 125.34977722 C12.67262496 125.40403081 9.708111 125.45086125 6.7434082 125.49291992 C2.94321929 125.54780735 -0.85613417 125.62533547 -4.65578747 125.70886707 C-7.58183616 125.77001948 -10.50798623 125.81719108 -13.43435097 125.86032677 C-14.83587545 125.88306129 -16.23733014 125.91063163 -17.63866234 125.94312477 C-19.59371764 125.98677078 -21.54921306 126.00914293 -23.50463867 126.03051758 C-24.61683273 126.0489119 -25.72902679 126.06730621 -26.87492371 126.08625793 C-29.625 125.75 -29.625 125.75 -31.50752258 124.23246765 C-31.87629013 123.74325333 -32.24505768 123.254039 -32.625 122.75 C-31.3168838 119.21808626 -29.23807228 117.43050195 -26.2578125 115.19140625 C-24.50915072 113.73441905 -24.50915072 113.73441905 -22.9375 111.609375 C-19.71469459 107.62441966 -16.11972249 104.06046017 -12.5 100.4375 C-11.40751953 99.32665039 -11.40751953 99.32665039 -10.29296875 98.19335938 C-9.59558594 97.49404297 -8.89820313 96.79472656 -8.1796875 96.07421875 C-7.54530762 95.43572998 -6.91092773 94.79724121 -6.25732422 94.1394043 C-4.625 92.75 -4.625 92.75 -2.625 92.75 C-2.625 92.09 -2.625 91.43 -2.625 90.75 C-1.34982707 89.62296789 -0.02920075 88.54695103 1.3125 87.5 C4.03692954 85.16338961 5.27513362 83.9877771 6.6875 80.625 C6.24967834 76.59704075 4.28791661 75.5004108 1.375 72.75 C0.52679687 71.89019531 -0.32140625 71.03039062 -1.1953125 70.14453125 C-2.03835938 69.29246094 -2.88140625 68.44039062 -3.75 67.5625 C-5.02230469 66.27279297 -5.02230469 66.27279297 -6.3203125 64.95703125 C-8.61649995 62.62938579 -8.61649995 62.62938579 -11.625 60.75 C-11.625 60.09 -11.625 59.43 -11.625 58.75 C-12.285 58.75 -12.945 58.75 -13.625 58.75 C-13.625 58.09 -13.625 57.43 -13.625 56.75 C-14.20024414 56.49565186 -14.77548828 56.24130371 -15.36816406 55.97924805 C-19.66094015 53.64106895 -22.90862389 49.96276778 -26.375 46.5625 C-27.16777344 45.81935547 -27.96054687 45.07621094 -28.77734375 44.31054688 C-29.52628906 43.57513672 -30.27523437 42.83972656 -31.046875 42.08203125 C-32.07699707 41.08780151 -32.07699707 41.08780151 -33.12792969 40.07348633 C-35.31982615 36.67161441 -35.29100136 34.72745661 -34.625 30.75 C-32.88381504 28.07269843 -30.69793976 25.98217311 -28.38671875 23.79296875 C-27.75014847 23.16393143 -27.11357819 22.5348941 -26.4577179 21.88679504 C-24.42517188 19.8867118 -22.36935051 17.91254806 -20.3125 15.9375 C-18.93921353 14.59076298 -17.56745019 13.24247093 -16.19726562 11.89257812 C-13.68293402 9.42848284 -11.16578763 6.96770098 -8.62768555 4.52807617 C-8.1191655 4.03844894 -7.61064545 3.54882172 -7.0867157 3.0443573 C-3.29440689 -0.31375304 -3.29440689 -0.31375304 0 0 Z M8.375 78.75 C9.375 80.75 9.375 80.75 9.375 80.75 Z " fill="#EF5829" transform="translate(816.625,569.25)"/>
<path d="M0 0 C1.73804903 1.62581899 3.36639561 3.27439658 5 5 C6.07761796 6.08383144 7.15854119 7.16438337 8.2421875 8.2421875 C19.828125 19.828125 31.4140625 31.4140625 43 43 C42.67 43.99 42.34 44.98 42 46 C41.88251223 48.10028785 41.82315675 50.20399448 41.79467773 52.30737305 C41.77473251 53.60849533 41.75478729 54.90961761 41.73423767 56.25016785 C41.71725454 57.6706836 41.70037569 59.0912006 41.68359375 60.51171875 C41.66301863 61.96475306 41.64202201 63.41778146 41.62062073 64.87080383 C41.56545766 68.6929953 41.51602302 72.51524026 41.46777344 76.33752441 C41.41751628 80.23873652 41.36185222 84.13987105 41.30664062 88.04101562 C41.19912959 95.69394469 41.09766902 103.34693833 41 111 C39.68 111.33 38.36 111.66 37 112 C36.7525 111.195625 36.505 110.39125 36.25 109.5625 C35.8375 108.716875 35.425 107.87125 35 107 C34.38705078 106.84748779 33.77410156 106.69497559 33.14257812 106.5378418 C30.46754157 105.86633934 29.40368273 104.77687435 27.46875 102.83203125 C26.82292969 102.18556641 26.17710937 101.53910156 25.51171875 100.87304688 C24.84785156 100.19306641 24.18398438 99.51308594 23.5 98.8125 C22.83613281 98.15185547 22.17226563 97.49121094 21.48828125 96.81054688 C17.80432355 93.08614653 14.80489733 89.41426465 12 85 C10.35648543 83.63823078 8.68477344 82.31037934 7 81 C4.70430477 78.59733689 2.42999991 76.17932399 0.18359375 73.73046875 C-1.80404216 71.78995125 -1.80404216 71.78995125 -4.0546875 71.98828125 C-6.53343898 73.27743112 -7.8228575 74.8205821 -9.5625 77 C-12.68562145 80.89520715 -12.68562145 80.89520715 -16 82 C-16 82.66 -16 83.32 -16 84 C-16.66 84 -17.32 84 -18 84 C-18.26167969 84.57878906 -18.52335938 85.15757812 -18.79296875 85.75390625 C-21.93391492 91.598709 -27.29202303 96.40411772 -32 101 C-33.50137425 102.49862449 -35.00123711 103.99876391 -36.5 105.5 C-37.27988281 106.27085937 -38.05976562 107.04171875 -38.86328125 107.8359375 C-40.10742693 109.09600461 -41.3278089 110.38229956 -42.48046875 111.7265625 C-43.6875 113.125 -43.6875 113.125 -46 115 C-49.125 115.0625 -49.125 115.0625 -52 114 C-53.75 112.0625 -53.75 112.0625 -55 110 C-56.65117827 108.34882173 -58.31262081 106.87977084 -60.1015625 105.38671875 C-64.39135821 101.72515906 -68.38673452 97.79709304 -72.375 93.8125 C-73.09816406 93.10158203 -73.82132813 92.39066406 -74.56640625 91.65820312 C-75.59701172 90.63049805 -75.59701172 90.63049805 -76.6484375 89.58203125 C-77.26895996 88.96561768 -77.88948242 88.3492041 -78.52880859 87.71411133 C-80.67309235 85.21576811 -81.00266857 82.98123955 -81.46166992 79.75439453 C-80.81450205 74.49149265 -78.36404911 72.46889324 -74.61328125 68.9296875 C-73.95925827 68.28556915 -73.30523529 67.64145081 -72.63139343 66.97781372 C-70.54098924 64.92648556 -68.42762364 62.90079969 -66.3125 60.875 C-64.90790774 59.50554279 -63.5048942 58.13446437 -62.10351562 56.76171875 C-59.51916991 54.23442367 -56.92605902 51.71693798 -54.3215332 49.21044922 C-48.73986615 43.85496865 -48.73986615 43.85496865 -43.625 38.0625 C-41.25151715 35.1516248 -38.56553227 32.82620902 -35.6875 30.42578125 C-31.2933841 26.71316018 -27.5710166 22.42269866 -23.84375 18.0625 C-21.65215642 15.61088684 -19.337398 13.31286759 -17 11 C-15.71029297 9.69289063 -15.71029297 9.69289063 -14.39453125 8.359375 C-13.54246094 7.49828125 -12.69039062 6.6371875 -11.8125 5.75 C-10.52279297 4.44289063 -10.52279297 4.44289063 -9.20703125 3.109375 C-6.11612288 0.15523248 -4.2553825 -0.5937743 0 0 Z " fill="#EF5828" transform="translate(654,476)"/>
<path d="M0 0 C21.78 0 43.56 0 66 0 C66 0.33 66 0.66 66 1 C44.22 1 22.44 1 0 1 C0 0.67 0 0.34 0 0 Z " fill="#FFFFFF" transform="translate(816,803)"/>
<path d="M0 0 C20.46 0 40.92 0 62 0 C62 0.33 62 0.66 62 1 C41.54 1 21.08 1 0 1 C0 0.67 0 0.34 0 0 Z " fill="#FF0000" transform="translate(788,695)"/>
<path d="M0 0 C0.66 0.33 1.32 0.66 2 1 C1.42856724 4.73952319 -0.10789451 6.54042815 -2.75 9.1875 C-3.76320313 10.22970703 -3.76320313 10.22970703 -4.796875 11.29296875 C-7.24454151 13.18947631 -8.95663753 13.64352223 -12 14 C-10.71480435 11.13302508 -9.42870746 9.02392288 -7 7 C-6.34 7 -5.68 7 -5 7 C-4.731875 6.401875 -4.46375 5.80375 -4.1875 5.1875 C-3.01506533 3.02775192 -1.80630718 1.64209744 0 0 Z " fill="#F53918" transform="translate(766,779)"/>
<path d="M0 0 C0.66 0.99 1.32 1.98 2 3 C-0.31 5.31 -2.62 7.62 -5 10 C-6.32 9.34 -7.64 8.68 -9 8 C-7.87811441 6.85111717 -6.75238316 5.70598863 -5.625 4.5625 C-4.99851562 3.92441406 -4.37203125 3.28632812 -3.7265625 2.62890625 C-2 1 -2 1 0 0 Z " fill="#D7401C" transform="translate(605,521)"/>
<path d="M0 0 C-0.9520721 1.00596297 -1.91187346 2.00461563 -2.875 3 C-3.40867187 3.556875 -3.94234375 4.11375 -4.4921875 4.6875 C-6 6 -6 6 -8 6 C-8.33 6.99 -8.66 7.98 -9 9 C-10.32 8.67 -11.64 8.34 -13 8 C-4.87776708 -2.43888354 -4.87776708 -2.43888354 0 0 Z " fill="#DC3616" transform="translate(874,675)"/>
<path d="M0 0 C0 3.93904219 -1.55191536 6.0758989 -4 9 C-5.97562361 10.87036498 -8.0122376 12.63529693 -10.09375 14.38671875 C-12.1793619 16.15179603 -14.10821973 18.02939555 -16 20 C-16.66 19.67 -17.32 19.34 -18 19 C-17.5968457 18.60208252 -17.19369141 18.20416504 -16.77832031 17.79418945 C-14.93285523 15.96965943 -13.09140987 14.1411223 -11.25 12.3125 C-10.61578125 11.68666016 -9.9815625 11.06082031 -9.328125 10.41601562 C-5.98710761 7.09239937 -2.8517269 3.76629589 0 0 Z " fill="#C81005" transform="translate(749,796)"/>
<path d="M0 0 C6.57142857 4 6.57142857 4 8 8 C7.01 8.33 6.02 8.66 5 9 C2.5 6.75 2.5 6.75 0 4 C0 2.68 0 1.36 0 0 Z " fill="#E33919" transform="translate(567,742)"/>
<path d="M0 0 C1.32 0.33 2.64 0.66 4 1 C1.03 4.3 -1.94 7.6 -5 11 C-5.33 10.01 -5.66 9.02 -6 8 C-5.566875 7.608125 -5.13375 7.21625 -4.6875 6.8125 C-2.73633776 4.71680722 -1.40989838 2.48410667 0 0 Z " fill="#F55023" transform="translate(595,530)"/>
<path d="M0 0 C0.86625 0.4640625 0.86625 0.4640625 1.75 0.9375 C3.92531569 2.06037668 3.92531569 2.06037668 6.125 2.5 C8 3 8 3 10 5 C10.625 7.625 10.625 7.625 11 10 C10.01 9.67 9.02 9.34 8 9 C8 8.34 8 7.68 8 7 C7.34 7 6.68 7 6 7 C6 6.34 6 5.68 6 5 C5.38125 4.731875 4.7625 4.46375 4.125 4.1875 C2 3 2 3 0 0 Z " fill="#DD2410" transform="translate(797,621)"/>
<path d="M0 0 C0.99 0.33 1.98 0.66 3 1 C1.49776416 5.20626034 -1.28550034 6.73900021 -5 9 C-5.33 8.01 -5.66 7.02 -6 6 C-4.02 4.02 -2.04 2.04 0 0 Z " fill="#E33F1A" transform="translate(556,709)"/>
<path d="M0 0 C0.99 0.33 1.98 0.66 3 1 C2.67 1.99 2.34 2.98 2 4 C1.34 4 0.68 4 0 4 C0 4.66 0 5.32 0 6 C-0.66 6 -1.32 6 -2 6 C-2 6.66 -2 7.32 -2 8 C-2.66 8 -3.32 8 -4 8 C-4.33 7.01 -4.66 6.02 -5 5 C-3.35 3.35 -1.7 1.7 0 0 Z " fill="#D93A18" transform="translate(859,684)"/>
<path d="M0 0 C1.32 0.66 2.64 1.32 4 2 C3.360625 2.268125 2.72125 2.53625 2.0625 2.8125 C-0.33131686 3.88667752 -0.33131686 3.88667752 -1 7 C-3.0625 7.6875 -3.0625 7.6875 -5 8 C-4.45773019 4.20411134 -2.79872437 2.52788007 0 0 Z " fill="#F23D1B" transform="translate(504,692)"/>
<path d="M0 0 C0 0.99 0 1.98 0 3 C0.46565988 5.07052339 0.96969866 7.1325823 1.5 9.1875 C1.7784375 10.27417969 2.056875 11.36085938 2.34375 12.48046875 C2.5603125 13.31191406 2.776875 14.14335938 3 15 C-1.93438639 10.22478736 -1.93438639 10.22478736 -2.1875 5.5 C-2 2 -2 2 0 0 Z " fill="#E03817" transform="translate(575,550)"/>
<path d="M0 0 C1.98 1.65 3.96 3.3 6 5 C5.67 5.99 5.34 6.98 5 8 C4.34 8 3.68 8 3 8 C1.2856382 6.04072937 -0.38405168 4.04119788 -2 2 C-1.34 1.34 -0.68 0.68 0 0 Z " fill="#E23E1B" transform="translate(702,869)"/>
<path d="M0 0 C0.66 0.33 1.32 0.66 2 1 C1.09674384 2.32176485 0.17682097 3.63215066 -0.75 4.9375 C-1.26046875 5.66839844 -1.7709375 6.39929688 -2.296875 7.15234375 C-4.19177915 9.20805399 -5.27425729 9.62669176 -8 10 C-7.04367001 8.70684939 -6.08486149 7.41553147 -5.125 6.125 C-4.59132813 5.40570313 -4.05765625 4.68640625 -3.5078125 3.9453125 C-2 2 -2 2 0 0 Z " fill="#D4260F" transform="translate(623,501)"/>
<path d="M0 0 C0.33 0.99 0.66 1.98 1 3 C-0.28965176 4.37562854 -1.62689293 5.70766393 -3 7 C-3.66 7 -4.32 7 -5 7 C-5.33 7.99 -5.66 8.98 -6 10 C-6 6 -6 6 -4.6875 4.296875 C-4.130625 3.78640625 -3.57375 3.2759375 -3 2.75 C-2.1646875 1.96882812 -2.1646875 1.96882812 -1.3125 1.171875 C-0.879375 0.78515625 -0.44625 0.3984375 0 0 Z " fill="#F32C10" transform="translate(791,683)"/>
<path d="M0 0 C0 3 0 3 -1.3125 4.38671875 C-2.875 5.59114583 -4.4375 6.79557292 -6 8 C-5.8125 5.6875 -5.8125 5.6875 -5 3 C-2.4375 1.1875 -2.4375 1.1875 0 0 Z " fill="#F13611" transform="translate(787,829)"/>
<path d="M0 0 C0.556875 0.7115625 0.556875 0.7115625 1.125 1.4375 C3.62646962 3.52205802 5.81593418 3.64621491 9 4 C9 4.66 9 5.32 9 6 C7.54054712 5.91291331 6.08234132 5.80473093 4.625 5.6875 C3.81289063 5.62949219 3.00078125 5.57148437 2.1640625 5.51171875 C0 5 0 5 -2 2 C-1.34 2 -0.68 2 0 2 C0 1.34 0 0.68 0 0 Z " fill="#B8260E" transform="translate(718,816)"/>
<path d="M0 0 C0 3 0 3 -1.3125 4.60546875 C-1.869375 5.12753906 -2.42625 5.64960937 -3 6.1875 C-3.556875 6.71730469 -4.11375 7.24710938 -4.6875 7.79296875 C-5.120625 8.19128906 -5.55375 8.58960938 -6 9 C-6.66 8.67 -7.32 8.34 -8 8 C-6.10186436 4.39354228 -4.81257069 2.52502828 -1 1 C-0.67 0.67 -0.34 0.34 0 0 Z " fill="#D81B0E" transform="translate(646,549)"/>
<path d="M0 0 C2.79579355 1.39789678 3.59807058 3.2628997 5 6 C4.67 6.66 4.34 7.32 4 8 C1.53199953 6.84826645 -0.04783565 5.95216435 -2 4 C-1.34 2.68 -0.68 1.36 0 0 Z " fill="#CD471D" transform="translate(683,779)"/>
<path d="M0 0 C0.99 0 1.98 0 3 0 C5.1875 3 5.1875 3 7 6 C6.34 6.66 5.68 7.32 5 8 C4.34 7.01 3.68 6.02 3 5 C2.46375 4.484375 1.9275 3.96875 1.375 3.4375 C0 2 0 2 0 0 Z " fill="#E53E19" transform="translate(477,721)"/>
<path d="M0 0 C1.32 0.66 2.64 1.32 4 2 C1.75 4.5625 1.75 4.5625 -1 7 C-3.3125 6.8125 -3.3125 6.8125 -5 6 C-3.35 4.02 -1.7 2.04 0 0 Z " fill="#E73A19" transform="translate(823,651)"/>
<path d="M0 0 C0.33 0.66 0.66 1.32 1 2 C-0.32 3.65 -1.64 5.3 -3 7 C-3.99 6.67 -4.98 6.34 -6 6 C-4.02 4.02 -2.04 2.04 0 0 Z " fill="#EB290F" transform="translate(792,590)"/>
<path d="M0 0 C1 4 1 4 1 4 Z " fill="#FFFFFF" transform="translate(699,684)"/>
<path d="M0 0 C1 4 1 4 1 4 Z " fill="#FFFFFF" transform="translate(802,647)"/>
<path d="" fill="#FF0000" transform="translate(0,0)"/>
<path d="" fill="#D40000" transform="translate(0,0)"/>
<path d="" fill="#FF0000" transform="translate(0,0)"/>
<path d="" fill="#FFFFFF" transform="translate(0,0)"/>
<path d="M0 0 C2 1 2 1 2 1 Z " fill="#FF0000" transform="translate(851,694)"/>
<path d="" fill="#FF0000" transform="translate(0,0)"/>
<path d="" fill="#FF0000" transform="translate(0,0)"/>
<path d="" fill="#FF0000" transform="translate(0,0)"/>
<path d="" fill="#FF0000" transform="translate(0,0)"/>
<path d="" fill="#FF0000" transform="translate(0,0)"/>
<path d="" fill="#FF0000" transform="translate(0,0)"/>
<path d="" fill="#FFFFFF" transform="translate(0,0)"/>
<path d="" fill="#FF0000" transform="translate(0,0)"/>
<path d="" fill="#FFFFFF" transform="translate(0,0)"/>
<path d="" fill="#FF0000" transform="translate(0,0)"/>
<path d="" fill="#FFFFFF" transform="translate(0,0)"/>
<path d="" fill="#FF0000" transform="translate(0,0)"/>
<path d="" fill="#FFFFFF" transform="translate(0,0)"/>
<path d="" fill="#FFFFFF" transform="translate(0,0)"/>
<path d="" fill="#FFFFFF" transform="translate(0,0)"/>
<path d="" fill="#FFFFFF" transform="translate(0,0)"/>
<path d="" fill="#FFFFFF" transform="translate(0,0)"/>
<path d="" fill="#FF0000" transform="translate(0,0)"/>
<path d="" fill="#FF0000" transform="translate(0,0)"/>
<path d="" fill="#FF0000" transform="translate(0,0)"/>
<path d="" fill="#FF0000" transform="translate(0,0)"/>
<path d="" fill="#FF0000" transform="translate(0,0)"/>
<path d="" fill="#FF0000" transform="translate(0,0)"/>
<path d="" fill="#800000" transform="translate(0,0)"/>
<path d="" fill="#FFFFFF" transform="translate(0,0)"/>
<path d="" fill="#FFFFFF" transform="translate(0,0)"/>
<path d="" fill="#FF0000" transform="translate(0,0)"/>
<path d="" fill="#FF0000" transform="translate(0,0)"/>
<path d="" fill="#FFFFFF" transform="translate(0,0)"/>
<path d="" fill="#800000" transform="translate(0,0)"/>
<path d="" fill="#FF0000" transform="translate(0,0)"/>
<path d="" fill="#FFFFFF" transform="translate(0,0)"/>
<path d="" fill="#FF0000" transform="translate(0,0)"/>
<path d="" fill="#FFFFFF" transform="translate(0,0)"/>
<path d="" fill="#FF0000" transform="translate(0,0)"/>
<path d="" fill="#FF0000" transform="translate(0,0)"/>
<path d="" fill="#FFFFFF" transform="translate(0,0)"/>
<path d="" fill="#550000" transform="translate(0,0)"/>
<path d="" fill="#FFFFFF" transform="translate(0,0)"/>
<path d="" fill="#FF0000" transform="translate(0,0)"/>
<path d="" fill="#FFFFFF" transform="translate(0,0)"/>
<path d="" fill="#FF0000" transform="translate(0,0)"/>
<path d="" fill="#FFFFFF" transform="translate(0,0)"/>
<path d="" fill="#FF0000" transform="translate(0,0)"/>
<path d="" fill="#FFFFFF" transform="translate(0,0)"/>
<path d="" fill="#FFFFFF" transform="translate(0,0)"/>
<path d="" fill="#FFFFFF" transform="translate(0,0)"/>
<path d="" fill="#FFFFFF" transform="translate(0,0)"/>
<path d="" fill="#800000" transform="translate(0,0)"/>
<path d="" fill="#FFFFFF" transform="translate(0,0)"/>
<path d="" fill="#FFFFFF" transform="translate(0,0)"/>
<path d="" fill="#AA0000" transform="translate(0,0)"/>
<path d="" fill="#FF0000" transform="translate(0,0)"/>
<path d="" fill="#FF0000" transform="translate(0,0)"/>
<path d="" fill="#FFFFFF" transform="translate(0,0)"/>
<path d="" fill="#FF0000" transform="translate(0,0)"/>
<path d="" fill="#550000" transform="translate(0,0)"/>
<path d="" fill="#FF0000" transform="translate(0,0)"/>
<path d="" fill="#FFFFFF" transform="translate(0,0)"/>
<path d="" fill="#FF0000" transform="translate(0,0)"/>
<path d="" fill="#FFFFFF" transform="translate(0,0)"/>
<path d="" fill="#FF0000" transform="translate(0,0)"/>
<path d="" fill="#FFFFFF" transform="translate(0,0)"/>
<path d="" fill="#FF0000" transform="translate(0,0)"/>
<path d="" fill="#FF0000" transform="translate(0,0)"/>
<path d="" fill="#FF0000" transform="translate(0,0)"/>
<path d="" fill="#FF0000" transform="translate(0,0)"/>
<path d="" fill="#FF0000" transform="translate(0,0)"/>
<path d="" fill="#FF0000" transform="translate(0,0)"/>
<path d="" fill="#FF0000" transform="translate(0,0)"/>
<path d="" fill="#FF0000" transform="translate(0,0)"/>
<path d="" fill="#FFFFFF" transform="translate(0,0)"/>
<path d="" fill="#FF0000" transform="translate(0,0)"/>
<path d="" fill="#FFFFFF" transform="translate(0,0)"/>
<path d="" fill="#FFFFFF" transform="translate(0,0)"/>
<path d="" fill="#FFFFFF" transform="translate(0,0)"/>
<path d="" fill="#FF0000" transform="translate(0,0)"/>
<path d="" fill="#FFFFFF" transform="translate(0,0)"/>
<path d="" fill="#FFFFFF" transform="translate(0,0)"/>
<path d="" fill="#FFFFFF" transform="translate(0,0)"/>
<path d="" fill="#800000" transform="translate(0,0)"/>
<path d="" fill="#FFFFFF" transform="translate(0,0)"/>
<path d="" fill="#FFFFFF" transform="translate(0,0)"/>
<path d="" fill="#FFFFFF" transform="translate(0,0)"/>
<path d="" fill="#FFFFFF" transform="translate(0,0)"/>
<path d="" fill="#FFFFFF" transform="translate(0,0)"/>
<path d="" fill="#FFFFFF" transform="translate(0,0)"/>
<path d="" fill="#FFFFFF" transform="translate(0,0)"/>
<path d="" fill="#FFFFFF" transform="translate(0,0)"/>
<path d="" fill="#FF0000" transform="translate(0,0)"/>
<path d="" fill="#FFFFFF" transform="translate(0,0)"/>
<path d="" fill="#800000" transform="translate(0,0)"/>
<path d="" fill="#FF0000" transform="translate(0,0)"/>
<path d="" fill="#FFFFFF" transform="translate(0,0)"/>
<path d="" fill="#800000" transform="translate(0,0)"/>
<path d="" fill="#FFFFFF" transform="translate(0,0)"/>
<path d="" fill="#FFFFFF" transform="translate(0,0)"/>
<path d="" fill="#FFFFFF" transform="translate(0,0)"/>
<path d="" fill="#FFFFFF" transform="translate(0,0)"/>
<path d="" fill="#FFFFFF" transform="translate(0,0)"/>
<path d="" fill="#FF0000" transform="translate(0,0)"/>
<path d="" fill="#FF0000" transform="translate(0,0)"/>
<path d="" fill="#FFFFFF" transform="translate(0,0)"/>
<path d="" fill="#FFFFFF" transform="translate(0,0)"/>
<path d="" fill="#FF0000" transform="translate(0,0)"/>
<path d="" fill="#FFFFFF" transform="translate(0,0)"/>
<path d="" fill="#FF0000" transform="translate(0,0)"/>
<path d="" fill="#FFFFFF" transform="translate(0,0)"/>
<path d="" fill="#FF0000" transform="translate(0,0)"/>
<path d="" fill="#FFFFFF" transform="translate(0,0)"/>
<path d="" fill="#FF0000" transform="translate(0,0)"/>
<path d="" fill="#FF0000" transform="translate(0,0)"/>
<path d="" fill="#FFFFFF" transform="translate(0,0)"/>
<path d="" fill="#FFFFFF" transform="translate(0,0)"/>
<path d="" fill="#FFFFFF" transform="translate(0,0)"/>
<path d="" fill="#FFFFFF" transform="translate(0,0)"/>
<path d="" fill="#FFFFFF" transform="translate(0,0)"/>
</svg>
